<svg width="97" height="16" viewBox="0 0 97 16" fill="none" xmlns="http://www.w3.org/2000/svg">
<path d="M8.736 4.592H5.68V14H3.456V4.592H0.416V2.608H8.736V4.592ZM16.5966 14H15.2046L14.5646 12.896L12.3406 14.096C11.1033 14.096 10.2713 13.648 9.84463 12.752C9.63129 12.3147 9.48196 11.8453 9.39663 11.344C9.32196 10.832 9.28463 10.304 9.28463 9.76C9.28463 9.20533 9.28996 8.8 9.30063 8.544C9.31129 8.27733 9.33796 7.97333 9.38063 7.632C9.42329 7.28 9.48196 6.98667 9.55663 6.752C9.64196 6.51733 9.75929 6.27733 9.90863 6.032C10.058 5.776 10.2393 5.57333 10.4526 5.424C10.9326 5.09333 11.5566 4.928 12.3246 4.928H14.5166L16.5966 4.8V14ZM14.5166 11.088V6.8H12.9326C12.346 6.8 11.9353 7.024 11.7006 7.472C11.4766 7.92 11.3646 8.592 11.3646 9.488C11.3646 10.3733 11.4713 10.9973 11.6846 11.36C11.9086 11.7227 12.3246 11.904 12.9326 11.904L14.5166 11.088ZM19.9115 1.376C20.4128 1.376 20.7382 1.456 20.8875 1.616C21.0368 1.76533 21.1115 2.09067 21.1115 2.592C21.1115 3.08267 21.0315 3.408 20.8715 3.568C20.7222 3.71733 20.3968 3.792 19.8955 3.792C19.4048 3.792 19.0795 3.712 18.9195 3.552C18.7702 3.392 18.6955 3.06667 18.6955 2.576C18.6955 2.08533 18.7702 1.76533 18.9195 1.616C19.0795 1.456 19.4102 1.376 19.9115 1.376ZM20.9355 14H18.8555V5.2H20.9355V14ZM30.9258 4.592H26.9098C26.4404 4.592 26.1098 4.68267 25.9178 4.864C25.7364 5.04533 25.6458 5.36 25.6458 5.808V7.392H29.8218L29.6618 9.376H25.6458V14H23.4218V4.928C23.4218 4.08533 23.6031 3.488 23.9658 3.136C24.3391 2.784 24.9738 2.608 25.8698 2.608H30.9258V4.592ZM39.5312 14H37.9793L37.4993 12.912L34.9393 14.096C34.2246 14.096 33.6006 13.8347 33.0673 13.312C32.5446 12.7787 32.2833 12.0053 32.2833 10.992V4.864H34.3633V10.544C34.3633 11.5573 34.7686 12.064 35.5793 12.064L37.4513 11.056V4.864H39.5312V14ZM48.9591 14H46.8791V8.16C46.8791 7.63733 46.7725 7.28 46.5591 7.088C46.3458 6.896 46.0471 6.8 45.6631 6.8L43.7911 7.584V14H41.7111V4.864H43.2631L43.7431 5.952L46.3031 4.768C47.0178 4.768 47.6365 5.03467 48.1591 5.568C48.6925 6.09067 48.9591 6.85867 48.9591 7.872V14ZM64.947 3.824V2.736H59.443C59.683 2.128 59.907 1.488 60.083 0.848L58.931 0.608C58.419 2.512 57.507 4.304 56.339 5.472C56.627 5.648 57.107 6.016 57.315 6.224C57.907 5.568 58.467 4.752 58.931 3.824H64.947ZM56.595 6.384H53.555V4.288H57.139V3.2H54.579V0.639999H53.443V3.2H50.659V4.288H52.499V6.48C52.499 8.832 52.291 11.952 50.387 14.544C50.675 14.736 51.075 15.04 51.267 15.264C53.059 12.8 53.475 9.952 53.539 7.456H55.491C55.379 11.968 55.267 13.536 55.011 13.92C54.883 14.096 54.755 14.144 54.515 14.144C54.275 14.144 53.683 14.128 53.027 14.064C53.203 14.352 53.315 14.816 53.331 15.136C54.003 15.168 54.659 15.168 55.043 15.12C55.443 15.088 55.715 14.976 55.955 14.624C56.371 14.08 56.467 12.272 56.595 6.912V6.384ZM64.435 7.04C63.859 7.664 62.963 8.432 62.163 9.056C61.939 8.256 61.747 7.408 61.603 6.528C62.691 6.016 63.683 5.456 64.387 4.912L63.539 4.288C62.115 5.392 59.091 6.576 56.851 7.072C57.123 7.312 57.427 7.76 57.571 8.048C57.843 7.968 58.131 7.888 58.435 7.792V15.216H59.571V7.392C59.923 7.264 60.291 7.12 60.643 6.96C61.235 10.608 62.371 13.616 64.547 15.168C64.723 14.864 65.091 14.4 65.363 14.208C64.051 13.36 63.123 11.872 62.467 10.048C63.363 9.408 64.467 8.56 65.283 7.776L64.435 7.04ZM78.947 9.12H81.107V8.128H78.947V7.504C79.619 6.88 80.371 6 80.883 5.184L80.227 4.704L80.019 4.768H76.291V5.68H79.331C79.059 6.064 78.739 6.464 78.419 6.8H77.907V8.128H75.763V9.12H77.907V11.824C77.907 11.968 77.859 12.016 77.667 12.016C77.491 12.032 76.883 12.032 76.227 12.016C76.371 12.304 76.531 12.72 76.579 13.024C77.475 13.024 78.083 13.008 78.451 12.832C78.851 12.672 78.947 12.368 78.947 11.84V9.12ZM74.275 6.464C74.195 10.224 74.083 11.552 73.843 11.872C73.747 12.032 73.635 12.048 73.459 12.048C73.251 12.048 72.819 12.048 72.339 12C72.483 12.272 72.595 12.704 72.611 12.992C73.107 13.008 73.603 13.008 73.923 12.976C74.275 12.944 74.515 12.816 74.755 12.528C75.091 12.048 75.203 10.512 75.315 5.968C75.315 5.824 75.331 5.488 75.331 5.488H72.755V3.792H75.619C75.459 4.032 75.299 4.256 75.123 4.448C75.363 4.592 75.811 4.912 75.971 5.088C76.355 4.608 76.723 4.016 77.027 3.36H81.027V2.352H77.443C77.635 1.84 77.795 1.312 77.923 0.783999L76.883 0.559999C76.659 1.664 76.259 2.736 75.731 3.6V2.784H73.555V0.624H72.467V2.784H70.291V3.792H71.763V6.16C71.763 8.016 71.587 10.448 70.083 12.24C70.339 12.4 70.659 12.72 70.851 12.928C72.451 11.072 72.739 8.528 72.755 6.464H74.275ZM69.859 3.728C69.475 2.928 68.515 1.792 67.635 0.992L66.691 1.584C67.555 2.416 68.499 3.568 68.867 4.384L69.859 3.728ZM69.603 6.88H66.643V8H68.499V12.144C67.827 12.8 67.091 13.488 66.467 13.968L67.091 15.072C67.827 14.368 68.499 13.696 69.139 12.992C70.147 14.256 71.619 14.832 73.731 14.912C75.571 14.976 79.075 14.944 80.899 14.864C80.963 14.528 81.139 14 81.283 13.744C79.315 13.872 75.539 13.92 73.715 13.84C71.827 13.76 70.387 13.216 69.603 12.016V6.88ZM83.347 9.68C83.171 11.072 82.867 12.512 82.371 13.488C82.595 13.568 83.075 13.776 83.251 13.92C83.763 12.896 84.131 11.36 84.355 9.856L83.347 9.68ZM86.627 9.904C87.027 10.816 87.347 12.032 87.427 12.8L88.355 12.528C88.259 11.744 87.907 10.56 87.507 9.648L86.627 9.904ZM92.099 11.808C91.811 11.808 91.747 11.68 91.747 11.264V8.992H95.139V8.048H93.043V6.416H95.043V5.472H93.827C94.147 4.864 94.531 4 94.883 3.232L93.923 2.912C93.747 3.6 93.379 4.608 93.075 5.248L93.667 5.472H91.155L91.891 5.2C91.795 4.624 91.491 3.712 91.123 3.024L90.355 3.296C90.691 3.968 90.979 4.864 91.075 5.472H90.179V6.416H92.019V8.048H90.051V8.992H90.723V11.248C90.723 12.384 90.995 12.752 92.099 12.752H93.971C94.339 12.752 94.707 12.752 94.931 12.704C94.899 12.448 94.851 12 94.835 11.744C94.611 11.792 94.179 11.808 93.955 11.808H92.099ZM96.755 1.376H88.515V8.624C88.227 7.76 87.667 6.608 87.075 5.712L86.211 6.064C86.467 6.48 86.707 6.944 86.931 7.408L84.627 7.52C85.715 6.16 86.915 4.352 87.827 2.896L86.835 2.432C86.387 3.296 85.779 4.336 85.123 5.328C84.883 5.008 84.595 4.656 84.259 4.304C84.867 3.408 85.555 2.112 86.099 1.008L85.059 0.624C84.723 1.504 84.163 2.72 83.635 3.632C83.475 3.472 83.315 3.328 83.155 3.184L82.515 3.936C83.235 4.624 84.035 5.536 84.499 6.256C84.163 6.736 83.827 7.184 83.507 7.584L82.403 7.632L82.515 8.704L85.027 8.544V15.216H86.083V8.48L87.347 8.4C87.507 8.768 87.619 9.12 87.683 9.424L88.515 9.04V15.248H89.571V2.432H95.667V13.888C95.667 14.112 95.603 14.176 95.395 14.192C95.171 14.192 94.467 14.208 93.731 14.176C93.891 14.464 94.051 14.944 94.083 15.216C95.107 15.232 95.779 15.2 96.211 15.04C96.611 14.848 96.755 14.528 96.755 13.888V1.376Z" fill="white"/>
<path d="M8.736 4.592V5.592H9.736V4.592H8.736ZM5.68 4.592V3.592H4.68V4.592H5.68ZM5.68 14V15H6.68V14H5.68ZM3.456 14H2.456V15H3.456V14ZM3.456 4.592H4.456V3.592H3.456V4.592ZM0.416 4.592H-0.584V5.592H0.416V4.592ZM0.416 2.608V1.608H-0.584V2.608H0.416ZM8.736 2.608H9.736V1.608H8.736V2.608ZM8.736 3.592H5.68V5.592H8.736V3.592ZM4.68 4.592V14H6.68V4.592H4.68ZM5.68 13H3.456V15H5.68V13ZM4.456 14V4.592H2.456V14H4.456ZM3.456 3.592H0.416V5.592H3.456V3.592ZM1.416 4.592V2.608H-0.584V4.592H1.416ZM0.416 3.608H8.736V1.608H0.416V3.608ZM7.736 2.608V4.592H9.736V2.608H7.736ZM16.5966 14V15H17.5966V14H16.5966ZM15.2046 14L14.3395 14.5015L14.6285 15H15.2046V14ZM14.5646 12.896L15.4298 12.3945L14.9433 11.5554L14.0898 12.0159L14.5646 12.896ZM12.3406 14.096V15.096H12.5932L12.8155 14.9761L12.3406 14.096ZM9.84463 12.752L10.7475 12.322L10.7434 12.3136L9.84463 12.752ZM9.39662 11.344L8.40709 11.4883L8.40881 11.5001L8.4108 11.5118L9.39662 11.344ZM9.30062 8.544L10.2998 8.58563L10.2998 8.58397L9.30062 8.544ZM9.38062 7.632L10.3729 7.75603L10.3734 7.75233L9.38062 7.632ZM9.55663 6.752L8.61683 6.41026L8.60987 6.42939L8.6037 6.4488L9.55663 6.752ZM9.90862 6.032L10.7628 6.55195L10.7677 6.54395L10.7724 6.53587L9.90862 6.032ZM10.4526 5.424L9.8853 4.60047L9.87916 4.60477L10.4526 5.424ZM14.5166 4.928V5.928H14.5474L14.578 5.92611L14.5166 4.928ZM16.5966 4.8H17.5966V3.73657L16.5352 3.80189L16.5966 4.8ZM14.5166 11.088L14.9746 11.977L15.5166 11.6977V11.088H14.5166ZM14.5166 6.8H15.5166V5.8H14.5166V6.8ZM11.7006 7.472L10.8148 7.00799L10.8104 7.01635L10.8062 7.02479L11.7006 7.472ZM11.6846 11.36L10.8227 11.867L10.8282 11.8763L10.8338 11.8855L11.6846 11.36ZM12.9326 11.904V12.904H13.1751L13.3906 12.793L12.9326 11.904ZM16.5966 13H15.2046V15H16.5966V13ZM16.0698 13.4985L15.4298 12.3945L13.6995 13.3975L14.3395 14.5015L16.0698 13.4985ZM14.0898 12.0159L11.8658 13.2159L12.8155 14.9761L15.0395 13.7761L14.0898 12.0159ZM12.3406 13.096C11.8379 13.096 11.4949 13.0045 11.2627 12.8795C11.0437 12.7616 10.8743 12.5884 10.7475 12.3221L8.94176 13.1819C9.2416 13.8116 9.70157 14.3104 10.3145 14.6405C10.9144 14.9635 11.606 15.096 12.3406 15.096V13.096ZM10.7434 12.3136C10.5737 11.9656 10.4525 11.5879 10.3824 11.1762L8.4108 11.5118C8.5114 12.1028 8.68892 12.6637 8.94586 13.1904L10.7434 12.3136ZM10.3862 11.1997C10.3188 10.7379 10.2846 10.2582 10.2846 9.76H8.28463C8.28463 10.3498 8.32511 10.9261 8.40709 11.4883L10.3862 11.1997ZM10.2846 9.76C10.2846 9.20711 10.29 8.81943 10.2998 8.58563L8.30149 8.50237C8.2899 8.78057 8.28463 9.20355 8.28463 9.76H10.2846ZM10.2998 8.58397C10.3091 8.35207 10.3328 8.07696 10.3729 7.75603L8.38835 7.50797C8.34313 7.86971 8.31348 8.2026 8.30142 8.50403L10.2998 8.58397ZM10.3734 7.75233C10.4115 7.43785 10.4601 7.21062 10.5096 7.0552L8.6037 6.4488C8.50382 6.76271 8.43511 7.12215 8.38789 7.51167L10.3734 7.75233ZM10.4964 7.09374C10.5561 6.92959 10.6428 6.74907 10.7628 6.55195L9.05443 5.51205C8.87575 5.80559 8.72781 6.10507 8.61683 6.41026L10.4964 7.09374ZM10.7724 6.53587C10.859 6.38749 10.9465 6.29893 11.0261 6.24323L9.87916 4.60477C9.53206 4.84774 9.25696 5.16451 9.04485 5.52813L10.7724 6.53587ZM11.0199 6.24751C11.2874 6.06322 11.6957 5.928 12.3246 5.928V3.928C11.4176 3.928 10.5778 4.12345 9.88532 4.60049L11.0199 6.24751ZM12.3246 5.928H14.5166V3.928H12.3246V5.928ZM14.578 5.92611L16.658 5.79811L16.5352 3.80189L14.4552 3.92989L14.578 5.92611ZM15.5966 4.8V14H17.5966V4.8H15.5966ZM15.5166 11.088V6.8H13.5166V11.088H15.5166ZM14.5166 5.8H12.9326V7.8H14.5166V5.8ZM12.9326 5.8C12.5137 5.8 12.0908 5.88012 11.7058 6.0901C11.3127 6.30453 11.0161 6.6237 10.8148 7.00799L12.5865 7.93601C12.6198 7.8723 12.6459 7.85547 12.6635 7.8459C12.6892 7.83188 12.7648 7.8 12.9326 7.8V5.8ZM10.8062 7.02479C10.4777 7.68175 10.3646 8.54093 10.3646 9.488H12.3646C12.3646 8.64307 12.4755 8.15825 12.5951 7.91921L10.8062 7.02479ZM10.3646 9.488C10.3646 10.3948 10.4634 11.2562 10.8227 11.867L12.5466 10.853C12.4792 10.7384 12.3646 10.3519 12.3646 9.488H10.3646ZM10.8338 11.8855C11.3114 12.6587 12.1399 12.904 12.9326 12.904V10.904C12.7219 10.904 12.6111 10.8718 12.5642 10.8513C12.5532 10.8465 12.5461 10.8425 12.5421 10.8401C12.5381 10.8376 12.5364 10.8362 12.5363 10.8361C12.5361 10.836 12.5365 10.8363 12.5369 10.8367C12.5373 10.8371 12.5367 10.8366 12.5354 10.8345L10.8338 11.8855ZM13.3906 12.793L14.9746 11.977L14.0587 10.199L12.4747 11.015L13.3906 12.793ZM20.8875 1.616L20.1564 2.29832L20.1682 2.31092L20.1804 2.32311L20.8875 1.616ZM20.8715 3.568L21.5786 4.27511V4.27511L20.8715 3.568ZM18.9195 3.552L18.1884 4.23432L18.2002 4.24692L18.2124 4.2591L18.9195 3.552ZM18.9195 1.616L18.2124 0.908892L18.9195 1.616ZM20.9355 14V15H21.9355V14H20.9355ZM18.8555 14H17.8555V15H18.8555V14ZM18.8555 5.2V4.2H17.8555V5.2H18.8555ZM20.9355 5.2H21.9355V4.2H20.9355V5.2ZM19.9115 2.376C20.1173 2.376 20.2365 2.39324 20.2927 2.40707C20.3185 2.41342 20.3143 2.41507 20.2913 2.40341C20.2676 2.39143 20.2145 2.36051 20.1564 2.29832L21.6186 0.933681C21.3584 0.654914 21.0286 0.528447 20.7703 0.464928C20.5012 0.398757 20.2071 0.375999 19.9115 0.375999V2.376ZM20.1804 2.32311C20.1193 2.26201 20.0908 2.20826 20.0811 2.18778C20.0715 2.16739 20.0741 2.16646 20.0808 2.19569C20.0952 2.25825 20.1115 2.38307 20.1115 2.592H22.1115C22.1115 2.2996 22.0905 2.01108 22.0302 1.74831C21.9731 1.49963 21.8583 1.17256 21.5946 0.908892L20.1804 2.32311ZM20.1115 2.592C20.1115 2.79041 20.0946 2.90766 20.0804 2.96521C20.0739 2.99181 20.0713 2.99154 20.0801 2.97373C20.0892 2.95534 20.1139 2.91137 20.1644 2.86089L21.5786 4.27511C21.8354 4.01829 21.9586 3.70313 22.0226 3.44279C22.0884 3.17501 22.1115 2.88425 22.1115 2.592H20.1115ZM20.1644 2.86089C20.2255 2.7998 20.2792 2.77131 20.2997 2.76164C20.3201 2.75202 20.321 2.75463 20.2918 2.76134C20.2292 2.7757 20.1044 2.792 19.8955 2.792V4.792C20.1879 4.792 20.4764 4.77097 20.7392 4.71066C20.9879 4.65359 21.3149 4.53878 21.5786 4.27511L20.1644 2.86089ZM19.8955 2.792C19.6971 2.792 19.5798 2.77508 19.5223 2.76093C19.4957 2.75439 19.496 2.75181 19.5138 2.76061C19.5322 2.7697 19.5761 2.79442 19.6266 2.84489L18.2124 4.2591C18.4692 4.51592 18.7844 4.63905 19.0447 4.70307C19.3125 4.76892 19.6032 4.792 19.8955 4.792V2.792ZM19.6506 2.86968C19.6998 2.92246 19.7224 2.96658 19.7295 2.98194C19.7365 2.99713 19.733 2.99423 19.7262 2.96431C19.7115 2.90052 19.6955 2.77772 19.6955 2.576H17.6955C17.6955 2.86495 17.7168 3.15015 17.7768 3.41169C17.8345 3.66308 17.9465 3.97507 18.1884 4.23432L19.6506 2.86968ZM19.6955 2.576C19.6955 2.37358 19.7116 2.25392 19.7253 2.19523C19.7317 2.16797 19.7339 2.16993 19.724 2.19073C19.7139 2.21177 19.6858 2.26395 19.6266 2.32311L18.2124 0.908892C17.9516 1.16966 17.8357 1.49184 17.7777 1.74077C17.7167 2.00208 17.6955 2.28775 17.6955 2.576H19.6955ZM19.6266 2.32311C19.5743 2.37543 19.5289 2.40051 19.5109 2.4093C19.4934 2.41785 19.4941 2.41486 19.5227 2.40796C19.584 2.3931 19.7065 2.376 19.9115 2.376V0.375999C19.6152 0.375999 19.3216 0.398895 19.0523 0.464041C18.792 0.527038 18.4721 0.649185 18.2124 0.908892L19.6266 2.32311ZM20.9355 13H18.8555V15H20.9355V13ZM19.8555 14V5.2H17.8555V14H19.8555ZM18.8555 6.2H20.9355V4.2H18.8555V6.2ZM19.9355 5.2V14H21.9355V5.2H19.9355ZM30.9258 4.592V5.592H31.9258V4.592H30.9258ZM25.9177 4.864L25.2311 4.13699L25.2207 4.14679L25.2106 4.15689L25.9177 4.864ZM25.6458 7.392H24.6458V8.392H25.6458V7.392ZM29.8218 7.392L30.8185 7.47238L30.9056 6.392H29.8218V7.392ZM29.6618 9.376V10.376H30.5844L30.6585 9.45638L29.6618 9.376ZM25.6458 9.376V8.376H24.6458V9.376H25.6458ZM25.6458 14V15H26.6458V14H25.6458ZM23.4217 14H22.4217V15H23.4217V14ZM23.9657 3.136L23.2797 2.40841L23.2745 2.41338L23.2693 2.41842L23.9657 3.136ZM30.9258 2.608H31.9258V1.608H30.9258V2.608ZM30.9258 3.592H26.9097V5.592H30.9258V3.592ZM26.9097 3.592C26.3659 3.592 25.708 3.68659 25.2311 4.13699L26.6044 5.59101C26.551 5.64145 26.5212 5.63893 26.5742 5.6244C26.6283 5.60957 26.734 5.592 26.9097 5.592V3.592ZM25.2106 4.15689C24.743 4.6245 24.6458 5.27821 24.6458 5.808H26.6458C26.6458 5.64582 26.6628 5.55402 26.6747 5.51287C26.6858 5.4741 26.6825 5.51346 26.6249 5.57111L25.2106 4.15689ZM24.6458 5.808V7.392H26.6458V5.808H24.6458ZM25.6458 8.392H29.8218V6.392H25.6458V8.392ZM28.825 7.31162L28.665 9.29562L30.6585 9.45638L30.8185 7.47238L28.825 7.31162ZM29.6618 8.376H25.6458V10.376H29.6618V8.376ZM24.6458 9.376V14H26.6458V9.376H24.6458ZM25.6458 13H23.4217V15H25.6458V13ZM24.4217 14V4.928H22.4217V14H24.4217ZM24.4217 4.928C24.4217 4.18437 24.5893 3.92439 24.6622 3.85358L23.2693 2.41842C22.6169 3.05161 22.4217 3.9863 22.4217 4.928H24.4217ZM24.6518 3.86359C24.7427 3.77783 25.054 3.608 25.8698 3.608V1.608C24.8935 1.608 23.9354 1.79017 23.2797 2.40841L24.6518 3.86359ZM25.8698 3.608H30.9258V1.608H25.8698V3.608ZM29.9258 2.608V4.592H31.9258V2.608H29.9258ZM39.5312 14V15H40.5312V14H39.5312ZM37.9793 14L37.0643 14.4036L37.3274 15H37.9793V14ZM37.4993 12.912L38.4142 12.5084L38.0033 11.5771L37.0795 12.0044L37.4993 12.912ZM34.9393 14.096V15.096H35.1593L35.359 15.0036L34.9393 14.096ZM33.0672 13.312L32.353 14.0119L32.3601 14.0191L32.3673 14.0262L33.0672 13.312ZM32.2832 4.864V3.864H31.2833V4.864H32.2832ZM34.3633 4.864H35.3633V3.864H34.3633V4.864ZM35.5793 12.064V13.064H35.8314L36.0533 12.9445L35.5793 12.064ZM37.4512 11.056L37.9254 11.9365L38.4512 11.6533V11.056H37.4512ZM37.4512 4.864V3.864H36.4512V4.864H37.4512ZM39.5312 4.864H40.5312V3.864H39.5312V4.864ZM39.5312 13H37.9793V15H39.5312V13ZM38.8942 13.5964L38.4142 12.5084L36.5843 13.3156L37.0643 14.4036L38.8942 13.5964ZM37.0795 12.0044L34.5195 13.1884L35.359 15.0036L37.919 13.8196L37.0795 12.0044ZM34.9393 13.096C34.4991 13.096 34.1229 12.9464 33.7672 12.5978L32.3673 14.0262C33.0783 14.7229 33.9501 15.096 34.9393 15.096V13.096ZM33.7815 12.6121C33.4995 12.3243 33.2832 11.8392 33.2832 10.992H31.2833C31.2833 12.1714 31.5897 13.233 32.353 14.0119L33.7815 12.6121ZM33.2832 10.992V4.864H31.2833V10.992H33.2832ZM32.2832 5.864H34.3633V3.864H32.2832V5.864ZM33.3633 4.864V10.544H35.3633V4.864H33.3633ZM33.3633 10.544C33.3633 11.1575 33.4816 11.8027 33.8864 12.3087C34.3253 12.8573 34.9532 13.064 35.5793 13.064V11.064C35.479 11.064 35.4374 11.0482 35.4319 11.0459C35.4294 11.0449 35.4326 11.046 35.4383 11.0503C35.444 11.0546 35.4474 11.0584 35.4481 11.0593C35.4497 11.0612 35.4279 11.0353 35.4055 10.9513C35.3826 10.8655 35.3633 10.7339 35.3633 10.544H33.3633ZM36.0533 12.9445L37.9254 11.9365L36.9771 10.1755L35.1052 11.1835L36.0533 12.9445ZM38.4512 11.056V4.864H36.4512V11.056H38.4512ZM37.4512 5.864H39.5312V3.864H37.4512V5.864ZM38.5312 4.864V14H40.5312V4.864H38.5312ZM48.9591 14V15H49.9591V14H48.9591ZM46.8791 14H45.8791V15H46.8791V14ZM46.5591 7.088L45.8902 7.83129L46.5591 7.088ZM45.6631 6.8V5.8H45.4622L45.2768 5.87762L45.6631 6.8ZM43.7911 7.584L43.4048 6.66162L42.7911 6.91865V7.584H43.7911ZM43.7911 14V15H44.7911V14H43.7911ZM41.7111 14H40.7111V15H41.7111V14ZM41.7111 4.864V3.864H40.7111V4.864H41.7111ZM43.2631 4.864L44.178 4.46036L43.9149 3.864H43.2631V4.864ZM43.7431 5.952L42.8282 6.35564L43.2391 7.2869L44.1629 6.85963L43.7431 5.952ZM46.3031 4.768V3.768H46.0831L45.8833 3.86037L46.3031 4.768ZM48.1591 5.568L47.4449 6.26793L47.452 6.27514L47.4592 6.28221L48.1591 5.568ZM48.9591 13H46.8791V15H48.9591V13ZM47.8791 14V8.16H45.8791V14H47.8791ZM47.8791 8.16C47.8791 7.56866 47.7714 6.83367 47.2281 6.34471L45.8902 7.83129C45.825 7.77269 45.8247 7.7318 45.8409 7.78603C45.8579 7.84299 45.8791 7.95988 45.8791 8.16H47.8791ZM47.2281 6.34471C46.7766 5.93835 46.2094 5.8 45.6631 5.8V7.8C45.7736 7.8 45.8379 7.81401 45.8691 7.82403C45.8967 7.8329 45.8978 7.83819 45.8902 7.83129L47.2281 6.34471ZM45.2768 5.87762L43.4048 6.66162L44.1774 8.50638L46.0494 7.72238L45.2768 5.87762ZM42.7911 7.584V14H44.7911V7.584H42.7911ZM43.7911 13H41.7111V15H43.7911V13ZM42.7111 14V4.864H40.7111V14H42.7111ZM41.7111 5.864H43.2631V3.864H41.7111V5.864ZM42.3482 5.26764L42.8282 6.35564L44.658 5.54836L44.178 4.46036L42.3482 5.26764ZM44.1629 6.85963L46.7229 5.67563L45.8833 3.86037L43.3233 5.04437L44.1629 6.85963ZM46.3031 5.768C46.7359 5.768 47.1009 5.91689 47.4449 6.26793L48.8733 4.86807C48.172 4.15244 47.2997 3.768 46.3031 3.768V5.768ZM47.4592 6.28221C47.74 6.55737 47.9591 7.02859 47.9591 7.872H49.9591C49.9591 6.68875 49.6449 5.62396 48.8591 4.85379L47.4592 6.28221ZM47.9591 7.872V14H49.9591V7.872H47.9591ZM64.947 3.824V4.824H65.947V3.824H64.947ZM64.947 2.736H65.947V1.736H64.947V2.736ZM59.443 2.736L58.5128 2.36883L57.9732 3.736H59.443V2.736ZM60.083 0.848L61.0472 1.11316L61.3296 0.0862384L60.287 -0.130981L60.083 0.848ZM58.931 0.608L59.135 -0.370981L58.2105 -0.563571L57.9653 0.348317L58.931 0.608ZM56.339 5.472L55.6319 4.76489L54.7338 5.66299L55.8176 6.32528L56.339 5.472ZM57.315 6.224L56.6079 6.93111L57.3522 7.6754L58.0574 6.89396L57.315 6.224ZM58.931 3.824V2.824H58.313L58.0366 3.37679L58.931 3.824ZM56.595 6.384H57.595V5.384H56.595V6.384ZM53.555 6.384H52.555V7.384H53.555V6.384ZM53.555 4.288V3.288H52.555V4.288H53.555ZM57.139 4.288V5.288H58.139V4.288H57.139ZM57.139 3.2H58.139V2.2H57.139V3.2ZM54.579 3.2H53.579V4.2H54.579V3.2ZM54.579 0.639999H55.579V-0.360001H54.579V0.639999ZM53.443 0.639999V-0.360001H52.443V0.639999H53.443ZM53.443 3.2V4.2H54.443V3.2H53.443ZM50.659 3.2V2.2H49.659V3.2H50.659ZM50.659 4.288H49.659V5.288H50.659V4.288ZM52.499 4.288H53.499V3.288H52.499V4.288ZM50.387 14.544L49.5811 13.952L48.9615 14.7955L49.8323 15.3761L50.387 14.544ZM51.267 15.264L50.5077 15.9148L51.3314 16.8757L52.0757 15.8522L51.267 15.264ZM53.539 7.456V6.456H52.5643L52.5393 7.43037L53.539 7.456ZM55.491 7.456L56.4907 7.48081L56.5161 6.456H55.491V7.456ZM55.011 13.92L55.8197 14.5082L55.8317 14.4917L55.8431 14.4747L55.011 13.92ZM53.027 14.064L53.1241 13.0687L51.1278 12.874L52.1737 14.5854L53.027 14.064ZM53.331 15.136L52.3322 15.1859L52.3775 16.0917L53.2834 16.1349L53.331 15.136ZM55.043 15.12L54.9633 14.1232L54.9411 14.125L54.919 14.1277L55.043 15.12ZM55.955 14.624L55.1606 14.0166L55.1441 14.0382L55.1288 14.0607L55.955 14.624ZM56.595 6.912L57.5947 6.93587L57.595 6.92394V6.912H56.595ZM64.435 7.04L65.0905 6.28478L64.358 5.64907L63.7002 6.36172L64.435 7.04ZM62.163 9.056L61.2 9.32563L61.6021 10.7617L62.778 9.8445L62.163 9.056ZM61.603 6.528L61.1772 5.62318L60.4942 5.94458L60.6161 6.68949L61.603 6.528ZM64.387 4.912L64.9985 5.70329L66.0477 4.89248L64.9797 4.10656L64.387 4.912ZM63.539 4.288L64.1317 3.48256L63.5233 3.03486L62.9263 3.49769L63.539 4.288ZM56.851 7.072L56.6348 6.09565L54.7149 6.52078L56.1894 7.82184L56.851 7.072ZM57.571 8.048L56.6766 8.49521L57.0507 9.2434L57.8532 9.00737L57.571 8.048ZM58.435 7.792H59.435V6.42754L58.1339 6.83842L58.435 7.792ZM58.435 15.216H57.435V16.216H58.435V15.216ZM59.571 15.216V16.216H60.571V15.216H59.571ZM59.571 7.392L59.2293 6.45221L58.571 6.69157V7.392H59.571ZM60.643 6.96L61.6301 6.79981L61.4205 5.50814L60.2292 6.04963L60.643 6.96ZM64.547 15.168L63.9663 15.9821L64.8615 16.6206L65.4124 15.669L64.547 15.168ZM65.363 14.208L65.9397 15.025L67.1488 14.1715L65.9058 13.3682L65.363 14.208ZM62.467 10.048L61.8858 9.23427L61.2699 9.6742L61.526 10.3864L62.467 10.048ZM65.283 7.776L65.9758 8.4971L66.7654 7.73849L65.9385 7.02078L65.283 7.776ZM65.947 3.824V2.736H63.947V3.824H65.947ZM64.947 1.736H59.443V3.736H64.947V1.736ZM60.3732 3.10317C60.6226 2.47129 60.8593 1.79635 61.0472 1.11316L59.1188 0.582843C58.9547 1.17965 58.7434 1.78471 58.5128 2.36883L60.3732 3.10317ZM60.287 -0.130981L59.135 -0.370981L58.727 1.58698L59.879 1.82698L60.287 -0.130981ZM57.9653 0.348317C57.4836 2.13957 56.6403 3.75647 55.6319 4.76489L57.0461 6.17911C58.3737 4.85153 59.3544 2.88443 59.8967 0.867682L57.9653 0.348317ZM55.8176 6.32528C56.0516 6.46834 56.466 6.7892 56.6079 6.93111L58.0221 5.51689C57.748 5.2428 57.2024 4.82766 56.8605 4.61872L55.8176 6.32528ZM58.0574 6.89396C58.7135 6.16694 59.3235 5.27505 59.8254 4.27121L58.0366 3.37679C57.6105 4.22895 57.1005 4.96906 56.5726 5.55403L58.0574 6.89396ZM58.931 4.824H64.947V2.824H58.931V4.824ZM56.595 5.384H53.555V7.384H56.595V5.384ZM54.555 6.384V4.288H52.555V6.384H54.555ZM53.555 5.288H57.139V3.288H53.555V5.288ZM58.139 4.288V3.2H56.139V4.288H58.139ZM57.139 2.2H54.579V4.2H57.139V2.2ZM55.579 3.2V0.639999H53.579V3.2H55.579ZM54.579 -0.360001H53.443V1.64H54.579V-0.360001ZM52.443 0.639999V3.2H54.443V0.639999H52.443ZM53.443 2.2H50.659V4.2H53.443V2.2ZM49.659 3.2V4.288H51.659V3.2H49.659ZM50.659 5.288H52.499V3.288H50.659V5.288ZM51.499 4.288V6.48H53.499V4.288H51.499ZM51.499 6.48C51.499 8.80312 51.2819 11.6366 49.5811 13.952L51.1929 15.136C53.3001 12.2674 53.499 8.86088 53.499 6.48H51.499ZM49.8323 15.3761C50.1108 15.5617 50.4113 15.8023 50.5077 15.9148L52.0263 14.6132C51.7387 14.2777 51.2392 13.9103 50.9417 13.7119L49.8323 15.3761ZM52.0757 15.8522C54.0442 13.1456 54.4727 10.054 54.5387 7.48163L52.5393 7.43037C52.4773 9.84995 52.0738 12.4544 50.4583 14.6758L52.0757 15.8522ZM53.539 8.456H55.491V6.456H53.539V8.456ZM54.4913 7.43118C54.4353 9.68853 54.3797 11.1859 54.3077 12.1625C54.2716 12.6524 54.2331 12.9859 54.1937 13.2075C54.1477 13.4665 54.1188 13.4555 54.179 13.3653L55.8431 14.4747C56.0312 14.1925 56.1123 13.8415 56.1628 13.5575C56.2199 13.2361 56.2644 12.8236 56.3023 12.3095C56.3783 11.2781 56.4347 9.73547 56.4907 7.48081L54.4913 7.43118ZM54.2023 13.3318C54.2036 13.33 54.2216 13.3054 54.2583 13.2736C54.2979 13.2392 54.3479 13.2064 54.4054 13.1813C54.5129 13.1344 54.582 13.144 54.515 13.144V15.144C54.688 15.144 54.9411 15.1296 55.2046 15.0147C55.4901 14.8903 55.6837 14.6953 55.8197 14.5082L54.2023 13.3318ZM54.515 13.144C54.304 13.144 53.7446 13.1293 53.1241 13.0687L52.9299 15.0593C53.6214 15.1267 54.246 15.144 54.515 15.144V13.144ZM52.1737 14.5854C52.1951 14.6204 52.2362 14.7106 52.2738 14.8494C52.3099 14.983 52.3283 15.1077 52.3322 15.1859L54.3298 15.0861C54.308 14.6502 54.1666 14.0111 53.8803 13.5426L52.1737 14.5854ZM53.2834 16.1349C53.9627 16.1672 54.6918 16.1717 55.167 16.1123L54.919 14.1277C54.6262 14.1643 54.0433 14.1688 53.3786 14.1371L53.2834 16.1349ZM55.1227 16.1168C55.3917 16.0953 55.7052 16.0411 56.0158 15.8816C56.3384 15.7159 56.5853 15.4747 56.7812 15.1873L55.1288 14.0607C55.1044 14.0964 55.0905 14.1095 55.089 14.1109C55.0888 14.1111 55.0941 14.1066 55.1022 14.1024C55.1168 14.0949 55.0943 14.1127 54.9633 14.1232L55.1227 16.1168ZM56.7494 15.2314C56.9907 14.9159 57.1121 14.5238 57.191 14.1495C57.2739 13.7561 57.3329 13.2609 57.38 12.6511C57.4745 11.4293 57.5309 9.60887 57.5947 6.93587L55.5953 6.88813C55.5311 9.57513 55.4755 11.3387 55.386 12.4969C55.3411 13.0771 55.2901 13.4709 55.234 13.737C55.1739 14.0222 55.1273 14.0601 55.1606 14.0166L56.7494 15.2314ZM57.595 6.912V6.384H55.595V6.912H57.595ZM63.7002 6.36172C63.1789 6.92641 62.3327 7.65541 61.548 8.2675L62.778 9.8445C63.5933 9.20859 64.5391 8.40159 65.1698 7.71828L63.7002 6.36172ZM63.126 8.78637C62.9114 8.0199 62.7276 7.20801 62.5899 6.36651L60.6161 6.68949C60.7664 7.60798 60.9666 8.49209 61.2 9.32563L63.126 8.78637ZM62.0288 7.43282C63.1472 6.9065 64.2125 6.31061 64.9985 5.70329L63.7756 4.12071C63.1535 4.60139 62.2348 5.12549 61.1772 5.62318L62.0288 7.43282ZM64.9797 4.10656L64.1317 3.48256L62.9463 5.09344L63.7943 5.71744L64.9797 4.10656ZM62.9263 3.49769C62.3205 3.96732 61.3063 4.49873 60.1228 4.98228C58.9537 5.45992 57.6921 5.86155 56.6348 6.09565L57.0672 8.04835C58.25 7.78645 59.6203 7.34808 60.8792 6.83372C62.1237 6.32527 63.3335 5.71267 64.1517 5.07831L62.9263 3.49769ZM56.1894 7.82184C56.3349 7.95024 56.5688 8.27961 56.6766 8.49521L58.4654 7.60079C58.2852 7.24039 57.9111 6.67376 57.5126 6.32216L56.1894 7.82184ZM57.8532 9.00737C58.1064 8.93289 58.4199 8.84546 58.7361 8.74558L58.1339 6.83842C57.8421 6.93054 57.5796 7.00311 57.2888 7.08863L57.8532 9.00737ZM57.435 7.792V15.216H59.435V7.792H57.435ZM58.435 16.216H59.571V14.216H58.435V16.216ZM60.571 15.216V7.392H58.571V15.216H60.571ZM59.9127 8.33179C60.2793 8.19851 60.6732 8.04471 61.0568 7.87037L60.2292 6.04963C59.9088 6.19529 59.5667 6.32949 59.2293 6.45221L59.9127 8.33179ZM59.6559 7.12018C60.2549 10.811 61.4414 14.1812 63.9663 15.9821L65.1277 14.3539C63.3006 13.0508 62.2151 10.405 61.6301 6.79981L59.6559 7.12018ZM65.4124 15.669C65.4664 15.5758 65.5677 15.43 65.6879 15.2853C65.7461 15.2153 65.8021 15.1537 65.8514 15.1045C65.8758 15.0802 65.8964 15.0611 65.9129 15.0468C65.921 15.0398 65.9275 15.0344 65.9323 15.0306C65.9346 15.0288 65.9365 15.0274 65.9378 15.0264C65.939 15.0254 65.9397 15.025 65.9397 15.025L64.7863 13.391C64.5431 13.5627 64.3169 13.806 64.1501 14.0067C63.9743 14.218 63.8036 14.4562 63.6816 14.667L65.4124 15.669ZM65.9058 13.3682C64.8575 12.6906 64.03 11.4391 63.408 9.70957L61.526 10.3864C62.216 12.3049 63.2445 14.0294 64.8202 15.0478L65.9058 13.3682ZM63.0482 10.8617C63.9581 10.2119 65.1079 9.331 65.9758 8.4971L64.5902 7.0549C63.8261 7.789 62.7679 8.60415 61.8858 9.23427L63.0482 10.8617ZM65.9385 7.02078L65.0905 6.28478L63.7795 7.79522L64.6275 8.53122L65.9385 7.02078ZM78.947 9.12V8.12H77.947V9.12H78.947ZM81.107 9.12V10.12H82.107V9.12H81.107ZM81.107 8.128H82.107V7.128H81.107V8.128ZM78.947 8.128H77.947V9.128H78.947V8.128ZM78.947 7.504L78.2665 6.77121L77.947 7.06793V7.504H78.947ZM80.883 5.184L81.7301 5.71549L82.2249 4.92679L81.4735 4.37697L80.883 5.184ZM80.227 4.704L80.8175 3.89697L80.4125 3.60064L79.9329 3.74822L80.227 4.704ZM80.019 4.768V5.768H80.1694L80.3131 5.72378L80.019 4.768ZM76.291 4.768V3.768H75.291V4.768H76.291ZM76.291 5.68H75.291V6.68H76.291V5.68ZM79.331 5.68L80.147 6.25802L81.2648 4.68H79.331V5.68ZM78.419 6.8V7.8H78.8476L79.1431 7.48965L78.419 6.8ZM77.907 6.8V5.8H76.907V6.8H77.907ZM77.907 8.128V9.128H78.907V8.128H77.907ZM75.763 8.128V7.128H74.763V8.128H75.763ZM75.763 9.12H74.763V10.12H75.763V9.12ZM77.907 9.12H78.907V8.12H77.907V9.12ZM77.667 12.016V11.016H77.6216L77.5765 11.0201L77.667 12.016ZM76.227 12.016L76.2514 11.0163L74.5888 10.9757L75.3326 12.4632L76.227 12.016ZM76.579 13.024L75.5912 13.18L75.7245 14.024H76.579V13.024ZM78.451 12.832L78.0796 11.9035L78.0491 11.9157L78.0195 11.9299L78.451 12.832ZM74.275 6.464L75.2748 6.48527L75.2965 5.464H74.275V6.464ZM73.843 11.872L73.043 11.272L73.012 11.3133L72.9855 11.3575L73.843 11.872ZM72.339 12L72.4385 11.005L70.5825 10.8194L71.4552 12.4679L72.339 12ZM72.611 12.992L71.6125 13.0475L71.6633 13.962L72.5788 13.9915L72.611 12.992ZM73.923 12.976L73.8325 11.9801L73.8235 11.981L73.923 12.976ZM74.755 12.528L75.5232 13.1682L75.5501 13.1359L75.5742 13.1015L74.755 12.528ZM75.315 5.968L76.3147 5.99264L76.315 5.98032V5.968H75.315ZM75.331 5.488L76.3299 5.53556L76.3798 4.488H75.331V5.488ZM72.755 5.488H71.755V6.488H72.755V5.488ZM72.755 3.792V2.792H71.755V3.792H72.755ZM75.619 3.792L76.451 4.3467L77.4875 2.792H75.619V3.792ZM75.123 4.448L74.3858 3.77227L73.5581 4.67526L74.6085 5.30549L75.123 4.448ZM75.971 5.088L75.2311 5.76067L76.0196 6.62805L76.7519 5.71269L75.971 5.088ZM77.027 3.36V2.36H76.3883L76.1197 2.93954L77.027 3.36ZM81.027 3.36V4.36H82.027V3.36H81.027ZM81.027 2.352H82.027V1.352H81.027V2.352ZM77.443 2.352L76.5067 2.00088L76 3.352H77.443V2.352ZM77.923 0.783999L78.8949 1.0196L79.1366 0.0224538L78.1336 -0.193582L77.923 0.783999ZM76.883 0.559999L77.0936 -0.417582L76.1042 -0.630672L75.903 0.361153L76.883 0.559999ZM75.731 3.6H74.731V7.15409L76.5843 4.12145L75.731 3.6ZM75.731 2.784H76.731V1.784H75.731V2.784ZM73.555 2.784H72.555V3.784H73.555V2.784ZM73.555 0.624H74.555V-0.376H73.555V0.624ZM72.467 0.624V-0.376H71.467V0.624H72.467ZM72.467 2.784V3.784H73.467V2.784H72.467ZM70.291 2.784V1.784H69.291V2.784H70.291ZM70.291 3.792H69.291V4.792H70.291V3.792ZM71.763 3.792H72.763V2.792H71.763V3.792ZM70.083 12.24L69.317 11.5971L68.5775 12.4783L69.553 13.088L70.083 12.24ZM70.851 12.928L70.1162 13.6063L70.8765 14.4299L71.6084 13.5809L70.851 12.928ZM72.755 6.464V5.464H71.7627L71.755 6.45625L72.755 6.464ZM69.859 3.728L70.4106 4.56211L71.1378 4.08123L70.7605 3.29527L69.859 3.728ZM67.635 0.992L68.3077 0.25206L67.7464 -0.258215L67.1037 0.144809L67.635 0.992ZM66.691 1.584L66.1597 0.736809L65.0756 1.41669L65.9974 2.30432L66.691 1.584ZM68.867 4.384L67.9554 4.79511L68.4385 5.86625L69.4186 5.21811L68.867 4.384ZM69.603 6.88H70.603V5.88H69.603V6.88ZM66.643 6.88V5.88H65.643V6.88H66.643ZM66.643 8H65.643V9H66.643V8ZM68.499 8H69.499V7H68.499V8ZM68.499 12.144L69.1975 12.8596L69.499 12.5653V12.144H68.499ZM66.467 13.968L65.8573 13.1754L65.1694 13.7045L65.5964 14.4601L66.467 13.968ZM67.091 15.072L66.2204 15.5641L66.8531 16.6834L67.7822 15.7946L67.091 15.072ZM69.139 12.992L69.9208 12.3685L69.1888 11.4506L68.3991 12.3193L69.139 12.992ZM73.731 14.912L73.6931 15.9113L73.6962 15.9114L73.731 14.912ZM80.899 14.864L80.9428 15.863L81.7333 15.8284L81.8813 15.0511L80.899 14.864ZM81.283 13.744L82.1546 14.2343L83.059 12.6264L81.2181 12.7461L81.283 13.744ZM73.715 13.84L73.7588 12.841L73.7573 12.8409L73.715 13.84ZM69.603 12.016H68.603V12.3137L68.7658 12.5629L69.603 12.016ZM78.947 10.12H81.107V8.12H78.947V10.12ZM82.107 9.12V8.128H80.107V9.12H82.107ZM81.107 7.128H78.947V9.128H81.107V7.128ZM79.947 8.128V7.504H77.947V8.128H79.947ZM79.6274 8.23679C80.3562 7.56011 81.1665 6.61364 81.7301 5.71549L80.0359 4.65251C79.5755 5.38636 78.8818 6.19989 78.2665 6.77121L79.6274 8.23679ZM81.4735 4.37697L80.8175 3.89697L79.6365 5.51103L80.2925 5.99103L81.4735 4.37697ZM79.9329 3.74822L79.7249 3.81222L80.3131 5.72378L80.5211 5.65978L79.9329 3.74822ZM80.019 3.768H76.291V5.768H80.019V3.768ZM75.291 4.768V5.68H77.291V4.768H75.291ZM76.291 6.68H79.331V4.68H76.291V6.68ZM78.515 5.10198C78.2648 5.45524 77.975 5.8162 77.6949 6.11034L79.1431 7.48965C79.503 7.1118 79.8532 6.67276 80.147 6.25802L78.515 5.10198ZM78.419 5.8H77.907V7.8H78.419V5.8ZM76.907 6.8V8.128H78.907V6.8H76.907ZM77.907 7.128H75.763V9.128H77.907V7.128ZM74.763 8.128V9.12H76.763V8.128H74.763ZM75.763 10.12H77.907V8.12H75.763V10.12ZM76.907 9.12V11.824H78.907V9.12H76.907ZM76.907 11.824C76.907 11.8158 76.9062 11.7346 76.9395 11.6247C76.9786 11.4958 77.0622 11.3363 77.2188 11.2058C77.3638 11.085 77.5066 11.0433 77.576 11.0284C77.642 11.0143 77.6817 11.016 77.667 11.016V13.016C77.768 13.016 78.1634 13.0221 78.4992 12.7422C78.9003 12.4079 78.907 11.9494 78.907 11.824H76.907ZM77.5765 11.0201C77.5769 11.0201 77.5658 11.021 77.5384 11.0222C77.5128 11.0233 77.4795 11.0243 77.4383 11.0252C77.3558 11.027 77.2505 11.028 77.127 11.028C76.8804 11.028 76.5726 11.0241 76.2514 11.0163L76.2026 13.0157C76.84 13.0312 77.5119 13.0342 77.7575 13.0119L77.5765 11.0201ZM75.3326 12.4632C75.4542 12.7065 75.5658 13.0187 75.5912 13.18L77.5668 12.868C77.4962 12.4213 77.2878 11.9015 77.1214 11.5688L75.3326 12.4632ZM76.579 14.024C77.0232 14.024 77.439 14.0205 77.7966 13.9905C78.1433 13.9614 78.5327 13.9014 78.8825 13.7341L78.0195 11.9299C78.0013 11.9386 77.9027 11.9746 77.6294 11.9975C77.367 12.0195 77.0308 12.024 76.579 12.024V14.024ZM78.8224 13.7605C79.2279 13.5983 79.5638 13.3159 79.7586 12.8895C79.9256 12.5239 79.947 12.1359 79.947 11.84H77.947C77.947 11.9452 77.942 12.0113 77.9361 12.0519C77.9303 12.0915 77.9265 12.0867 77.9394 12.0585C77.9462 12.0436 77.9569 12.024 77.9725 12.0024C77.9882 11.9806 78.0061 11.9606 78.025 11.9434C78.0638 11.9082 78.0905 11.8992 78.0796 11.9035L78.8224 13.7605ZM79.947 11.84V9.12H77.947V11.84H79.947ZM73.2752 6.44273C73.2352 8.32259 73.1876 9.5681 73.1222 10.3775C73.0894 10.7839 73.0541 11.053 73.0198 11.2253C72.978 11.4351 72.9586 11.3845 73.043 11.272L74.643 12.472C74.8474 12.1995 74.932 11.8629 74.9812 11.6162C75.0379 11.332 75.0806 10.9741 75.1158 10.5385C75.1864 9.6639 75.2348 8.36541 75.2748 6.48527L73.2752 6.44273ZM72.9855 11.3575C73.0016 11.3307 73.0371 11.2786 73.0994 11.2227C73.1653 11.1636 73.2414 11.1178 73.32 11.0874C73.3932 11.0591 73.4502 11.0512 73.4715 11.0489C73.4897 11.0469 73.4929 11.048 73.459 11.048V13.048C73.546 13.048 73.7882 13.0508 74.042 12.9526C74.3508 12.833 74.5619 12.6175 74.7005 12.3865L72.9855 11.3575ZM73.459 11.048C73.2542 11.048 72.8651 11.0476 72.4385 11.005L72.2395 12.995C72.7729 13.0484 73.2478 13.048 73.459 13.048V11.048ZM71.4552 12.4679C71.5268 12.6031 71.6039 12.8928 71.6125 13.0475L73.6095 12.9365C73.5861 12.5152 73.4392 11.9409 73.2228 11.5321L71.4552 12.4679ZM72.5788 13.9915C73.0793 14.0076 73.6319 14.0101 74.0225 13.971L73.8235 11.981C73.5741 12.0059 73.1347 12.0084 72.6432 11.9925L72.5788 13.9915ZM74.0135 13.9719C74.293 13.9465 74.5774 13.8777 74.8543 13.7289C75.1288 13.5814 75.3441 13.3831 75.5232 13.1682L73.9868 11.8878C73.9259 11.9609 73.9012 11.9706 73.9077 11.9671C73.9093 11.9662 73.9084 11.9672 73.9006 11.9693C73.8917 11.9718 73.8709 11.9766 73.8325 11.9801L74.0135 13.9719ZM75.5742 13.1015C75.7745 12.8153 75.8784 12.4714 75.947 12.1456C76.0191 11.8033 76.0723 11.3766 76.1156 10.8547C76.2023 9.80933 76.2588 8.26106 76.3147 5.99264L74.3153 5.94336C74.2592 8.21894 74.2037 9.71067 74.1224 10.6893C74.0817 11.1794 74.0369 11.5107 73.99 11.7334C73.9396 11.9726 73.9035 12.0007 73.9358 11.9545L75.5742 13.1015ZM76.315 5.968C76.315 5.91858 76.3181 5.81762 76.3222 5.71318C76.3242 5.66437 76.3261 5.61968 76.3275 5.58715C76.3282 5.57093 76.3288 5.55783 76.3292 5.54887C76.3295 5.5444 76.3296 5.54097 76.3297 5.5387C76.3298 5.53757 76.3298 5.53674 76.3298 5.53621C76.3298 5.53594 76.3299 5.53576 76.3299 5.53565C76.3299 5.53559 76.3299 5.53556 76.3299 5.53555C76.3299 5.53554 76.3299 5.53554 76.3299 5.53554C76.3299 5.53554 76.3299 5.53555 76.3299 5.53555C76.3299 5.53556 76.3299 5.53556 75.331 5.488C74.3321 5.44044 74.3321 5.44045 74.3321 5.44046C74.3321 5.44046 74.3321 5.44048 74.3321 5.44049C74.3321 5.44051 74.3321 5.44054 74.3321 5.44058C74.3321 5.44064 74.3321 5.44073 74.3321 5.44084C74.3321 5.44106 74.3321 5.44135 74.3321 5.44173C74.332 5.44248 74.332 5.44355 74.3319 5.44491C74.3318 5.44764 74.3316 5.45157 74.3314 5.45656C74.3309 5.46655 74.3303 5.48082 74.3295 5.49835C74.3279 5.53332 74.3259 5.58163 74.3238 5.63481C74.3199 5.73438 74.315 5.87342 74.315 5.968H76.315ZM75.331 4.488H72.755V6.488H75.331V4.488ZM73.755 5.488V3.792H71.755V5.488H73.755ZM72.755 4.792H75.619V2.792H72.755V4.792ZM74.7869 3.2373C74.6345 3.46601 74.5086 3.63836 74.3858 3.77227L75.8602 5.12372C76.0894 4.87364 76.2835 4.59799 76.451 4.3467L74.7869 3.2373ZM74.6085 5.30549C74.6939 5.35675 74.8385 5.45345 74.9818 5.55956C75.0518 5.61139 75.1142 5.66017 75.1637 5.70153C75.219 5.74772 75.2365 5.76669 75.2311 5.76067L76.7109 4.41533C76.5587 4.24786 76.3356 4.07347 76.1722 3.95244C75.9915 3.81855 75.7921 3.68325 75.6375 3.59051L74.6085 5.30549ZM76.7519 5.71269C77.1892 5.16597 77.5987 4.50461 77.9343 3.78046L76.1197 2.93954C75.8473 3.52739 75.5208 4.05003 75.1901 4.4633L76.7519 5.71269ZM77.027 4.36H81.027V2.36H77.027V4.36ZM82.027 3.36V2.352H80.027V3.36H82.027ZM81.027 1.352H77.443V3.352H81.027V1.352ZM78.3793 2.70312C78.5864 2.15097 78.758 1.58421 78.8949 1.0196L76.9511 0.548401C76.832 1.03978 76.6836 1.52903 76.5067 2.00088L78.3793 2.70312ZM78.1336 -0.193582L77.0936 -0.417582L76.6724 1.53758L77.7124 1.76158L78.1336 -0.193582ZM75.903 0.361153C75.6984 1.36961 75.3359 2.32884 74.8777 3.07855L76.5843 4.12145C77.1821 3.14315 77.6196 1.95839 77.863 0.758846L75.903 0.361153ZM76.731 3.6V2.784H74.731V3.6H76.731ZM75.731 1.784H73.555V3.784H75.731V1.784ZM74.555 2.784V0.624H72.555V2.784H74.555ZM73.555 -0.376H72.467V1.624H73.555V-0.376ZM71.467 0.624V2.784H73.467V0.624H71.467ZM72.467 1.784H70.291V3.784H72.467V1.784ZM69.291 2.784V3.792H71.291V2.784H69.291ZM70.291 4.792H71.763V2.792H70.291V4.792ZM70.763 3.792V6.16H72.763V3.792H70.763ZM70.763 6.16C70.763 8.00621 70.5702 10.104 69.317 11.5971L70.849 12.8829C72.6038 10.792 72.763 8.02579 72.763 6.16H70.763ZM69.553 13.088C69.6834 13.1695 69.9238 13.3979 70.1162 13.6063L71.5858 12.2497C71.3942 12.0421 70.9946 11.6305 70.613 11.392L69.553 13.088ZM71.6084 13.5809C73.4566 11.4371 73.7387 8.57322 73.755 6.47175L71.755 6.45625C71.7393 8.48278 71.4454 10.7069 70.0936 12.2751L71.6084 13.5809ZM72.755 7.464H74.275V5.464H72.755V7.464ZM70.7605 3.29527C70.296 2.32759 69.2289 1.08958 68.3077 0.25206L66.9623 1.73194C67.8011 2.49442 68.654 3.52841 68.9575 4.16073L70.7605 3.29527ZM67.1037 0.144809L66.1597 0.736809L67.2223 2.43119L68.1663 1.83919L67.1037 0.144809ZM65.9974 2.30432C66.8303 3.10641 67.6658 4.15283 67.9554 4.79511L69.7786 3.97289C69.3322 2.98316 68.2797 1.72559 67.3846 0.863679L65.9974 2.30432ZM69.4186 5.21811L70.4106 4.56211L69.3074 2.89389L68.3154 3.54989L69.4186 5.21811ZM69.603 5.88H66.643V7.88H69.603V5.88ZM65.643 6.88V8H67.643V6.88H65.643ZM66.643 9H68.499V7H66.643V9ZM67.499 8V12.144H69.499V8H67.499ZM67.8005 11.4284C67.131 12.0819 66.431 12.7341 65.8573 13.1754L67.0767 14.7606C67.751 14.2419 68.523 13.5181 69.1975 12.8596L67.8005 11.4284ZM65.5964 14.4601L66.2204 15.5641L67.9616 14.5799L67.3376 13.4759L65.5964 14.4601ZM67.7822 15.7946C68.5278 15.0815 69.2178 14.392 69.8789 13.6647L68.3991 12.3193C67.7802 13 67.1262 13.6545 66.3998 14.3494L67.7822 15.7946ZM68.3572 13.6155C69.6113 15.1881 71.4129 15.8249 73.6931 15.9113L73.7689 13.9127C71.8251 13.8391 70.6827 13.3239 69.9208 12.3685L68.3572 13.6155ZM73.6962 15.9114C75.5662 15.9764 79.0967 15.944 80.9428 15.863L80.8552 13.865C79.0533 13.944 75.5758 13.9756 73.7658 13.9126L73.6962 15.9114ZM81.8813 15.0511C81.9312 14.7892 82.0777 14.371 82.1546 14.2343L80.4114 13.2537C80.2003 13.629 79.9948 14.2668 79.9167 14.6769L81.8813 15.0511ZM81.2181 12.7461C79.2834 12.8719 75.5438 12.9192 73.7588 12.841L73.6712 14.839C75.5342 14.9208 79.3466 14.8721 81.3479 14.7419L81.2181 12.7461ZM73.7573 12.8409C72.0023 12.7665 70.9647 12.2719 70.4402 11.4691L68.7658 12.5629C69.8093 14.1601 71.6517 14.7535 73.6727 14.8391L73.7573 12.8409ZM70.603 12.016V6.88H68.603V12.016H70.603ZM83.347 9.68L83.519 8.6949L82.4864 8.51461L82.3549 9.55456L83.347 9.68ZM82.371 13.488L81.4795 13.035L80.9649 14.0477L82.0347 14.4297L82.371 13.488ZM83.251 13.92L82.6178 14.694L83.586 15.4861L84.1454 14.3672L83.251 13.92ZM84.355 9.856L85.3441 10.0033L85.4878 9.03866L84.527 8.8709L84.355 9.856ZM86.627 9.904L86.3477 8.9438L85.2535 9.2621L85.7112 10.3057L86.627 9.904ZM87.427 12.8L86.4324 12.9036L86.5567 14.0972L87.7083 13.7596L87.427 12.8ZM88.355 12.528L88.6363 13.4876L89.4507 13.2489L89.3476 12.4065L88.355 12.528ZM87.507 9.648L88.4228 9.24634L88.0703 8.44267L87.2277 8.6878L87.507 9.648ZM91.747 8.992V7.992H90.747V8.992H91.747ZM95.139 8.992V9.992H96.139V8.992H95.139ZM95.139 8.048H96.139V7.048H95.139V8.048ZM93.043 8.048H92.043V9.048H93.043V8.048ZM93.043 6.416V5.416H92.043V6.416H93.043ZM95.043 6.416V7.416H96.043V6.416H95.043ZM95.043 5.472H96.043V4.472H95.043V5.472ZM93.827 5.472L92.9421 5.00625L92.1706 6.472H93.827V5.472ZM94.883 3.232L95.7921 3.64865L96.2563 2.63569L95.1992 2.28332L94.883 3.232ZM93.923 2.912L94.2392 1.96332L93.2204 1.6237L92.9542 2.66417L93.923 2.912ZM93.075 5.248L92.1717 4.81894L91.7061 5.79922L92.7211 6.18329L93.075 5.248ZM93.667 5.472V6.472L94.0209 4.53671L93.667 5.472ZM91.155 5.472L90.8083 4.534L91.155 6.472V5.472ZM91.891 5.2L92.2376 6.13799L93.0134 5.85132L92.8774 5.0356L91.891 5.2ZM91.123 3.024L92.0048 2.55235L91.5994 1.79442L90.7892 2.08137L91.123 3.024ZM90.355 3.296L90.0212 2.35337L88.9545 2.73113L89.4606 3.74321L90.355 3.296ZM91.075 5.472V6.472H92.2453L92.0628 5.31604L91.075 5.472ZM90.179 5.472V4.472H89.179V5.472H90.179ZM90.179 6.416H89.179V7.416H90.179V6.416ZM92.019 6.416H93.019V5.416H92.019V6.416ZM92.019 8.048V9.048H93.019V8.048H92.019ZM90.051 8.048V7.048H89.051V8.048H90.051ZM90.051 8.992H89.051V9.992H90.051V8.992ZM90.723 8.992H91.723V7.992H90.723V8.992ZM94.931 12.704L95.1405 13.6818L96.037 13.4897L95.9233 12.58L94.931 12.704ZM94.835 11.744L95.8331 11.6816L95.7606 10.5229L94.6255 10.7662L94.835 11.744ZM96.755 1.376H97.755V0.375999H96.755V1.376ZM88.515 1.376V0.375999H87.515V1.376H88.515ZM88.515 8.624L87.5663 8.94023L89.515 8.624H88.515ZM87.075 5.712L87.9093 5.16074L87.4572 4.47647L86.6977 4.78591L87.075 5.712ZM86.211 6.064L85.8337 5.13791L84.7409 5.58312L85.3593 6.5881L86.211 6.064ZM86.931 7.408L86.9796 8.40682L88.4882 8.33348L87.8316 6.97325L86.931 7.408ZM84.627 7.52L83.8461 6.8953L82.4612 8.62646L84.6756 8.51882L84.627 7.52ZM87.827 2.896L88.6745 3.42684L89.2744 2.46903L88.2507 1.99019L87.827 2.896ZM86.835 2.432L87.2587 1.52619L86.3891 1.11946L85.9472 1.97168L86.835 2.432ZM85.123 5.328L84.323 5.928L85.1744 7.0632L85.9571 5.87959L85.123 5.328ZM84.259 4.304L83.4315 3.7425L82.9782 4.41052L83.5356 4.99448L84.259 4.304ZM86.099 1.008L86.996 1.45001L87.4866 0.454362L86.4454 0.0699029L86.099 1.008ZM85.059 0.624L85.4054 -0.314097L84.4776 -0.656671L84.1248 0.267298L85.059 0.624ZM83.635 3.632L82.9279 4.33911L83.8483 5.25949L84.5004 4.13304L83.635 3.632ZM83.155 3.184L83.824 2.44071L83.0598 1.75295L82.3935 2.53588L83.155 3.184ZM82.515 3.936L81.7535 3.28788L81.1416 4.0068L81.8241 4.65899L82.515 3.936ZM84.499 6.256L85.3182 6.82946L85.7035 6.27905L85.3396 5.7143L84.499 6.256ZM83.507 7.584L83.5504 8.58306L84.0042 8.56333L84.2879 8.20869L83.507 7.584ZM82.403 7.632L82.3596 6.63294L81.298 6.6791L81.4084 7.73591L82.403 7.632ZM82.515 8.704L81.5204 8.80791L81.6202 9.76302L82.5786 9.70198L82.515 8.704ZM85.027 8.544H86.027V7.47828L84.9634 7.54602L85.027 8.544ZM85.027 15.216H84.027V16.216H85.027V15.216ZM86.083 15.216V16.216H87.083V15.216H86.083ZM86.083 8.48L86.0198 7.482L85.083 7.54129V8.48H86.083ZM87.347 8.4L88.2641 8.00127L87.9842 7.35767L87.2838 7.402L87.347 8.4ZM87.683 9.424L86.7045 9.63001L86.9629 10.8577L88.1021 10.332L87.683 9.424ZM88.515 9.04H89.515V7.47709L88.0959 8.13204L88.515 9.04ZM88.515 15.248H87.515V16.248H88.515V15.248ZM89.571 15.248V16.248H90.571V15.248H89.571ZM89.571 2.432V1.432H88.571V2.432H89.571ZM95.667 2.432H96.667V1.432H95.667V2.432ZM95.395 14.192V15.192H95.4334L95.4717 15.1891L95.395 14.192ZM93.731 14.176L93.7744 13.1769L91.9889 13.0993L92.8568 14.6616L93.731 14.176ZM94.083 15.216L93.0899 15.3328L93.1921 16.2022L94.0674 16.2159L94.083 15.216ZM96.211 15.04L96.5583 15.9777L96.6019 15.9616L96.6437 15.9415L96.211 15.04ZM82.3549 9.55456C82.1817 10.9245 81.8935 12.2204 81.4795 13.035L83.2625 13.941C83.8405 12.8036 84.1603 11.2195 84.3391 9.80544L82.3549 9.55456ZM82.0347 14.4297C82.1124 14.4575 82.2585 14.5167 82.4032 14.5848C82.4742 14.6182 82.5356 14.6494 82.5823 14.6756C82.6376 14.7066 82.6412 14.7131 82.6178 14.694L83.8842 13.146C83.6898 12.9869 83.4217 12.8537 83.2548 12.7752C83.0595 12.6833 82.8535 12.5985 82.7073 12.5463L82.0347 14.4297ZM84.1454 14.3672C84.7295 13.1991 85.1157 11.5367 85.3441 10.0033L83.3659 9.70869C83.1463 11.1833 82.7965 12.5929 82.3566 13.4728L84.1454 14.3672ZM84.527 8.8709L83.519 8.6949L83.175 10.6651L84.183 10.8411L84.527 8.8709ZM85.7112 10.3057C86.0738 11.1323 86.3641 12.2481 86.4324 12.9036L88.4216 12.6964C88.3299 11.8159 87.9802 10.4997 87.5428 9.50234L85.7112 10.3057ZM87.7083 13.7596L88.6363 13.4876L88.0737 11.5684L87.1457 11.8404L87.7083 13.7596ZM89.3476 12.4065C89.2368 11.5015 88.8506 10.2218 88.4228 9.24634L86.5912 10.0497C86.9634 10.8982 87.2812 11.9865 87.3624 12.6495L89.3476 12.4065ZM87.2277 8.6878L86.3477 8.9438L86.9063 10.8642L87.7863 10.6082L87.2277 8.6878ZM92.099 10.808C92.0993 10.808 92.1036 10.808 92.1112 10.8085C92.1189 10.809 92.131 10.81 92.1467 10.8123C92.1776 10.8169 92.2292 10.8273 92.2922 10.8523C92.4398 10.9111 92.5756 11.0207 92.6653 11.1656C92.7037 11.2277 92.7246 11.2818 92.7357 11.3169C92.7466 11.3513 92.7501 11.3737 92.7506 11.3772C92.7508 11.3789 92.747 11.35 92.747 11.264H90.747C90.747 11.386 90.7512 11.5291 90.7724 11.6718C90.7931 11.8109 90.8389 12.0151 90.9647 12.2184C91.2907 12.745 91.8289 12.808 92.099 12.808V10.808ZM92.747 11.264V8.992H90.747V11.264H92.747ZM91.747 9.992H95.139V7.992H91.747V9.992ZM96.139 8.992V8.048H94.139V8.992H96.139ZM95.139 7.048H93.043V9.048H95.139V7.048ZM94.043 8.048V6.416H92.043V8.048H94.043ZM93.043 7.416H95.043V5.416H93.043V7.416ZM96.043 6.416V5.472H94.043V6.416H96.043ZM95.043 4.472H93.827V6.472H95.043V4.472ZM94.7119 5.93775C95.0487 5.29792 95.4504 4.39418 95.7921 3.64865L93.9739 2.81534C93.6116 3.60582 93.2453 4.43008 92.9421 5.00625L94.7119 5.93775ZM95.1992 2.28332L94.2392 1.96332L93.6068 3.86068L94.5668 4.18068L95.1992 2.28332ZM92.9542 2.66417C92.7948 3.28744 92.4492 4.23487 92.1717 4.81894L93.9783 5.67706C94.3088 4.98113 94.6992 3.91256 94.8918 3.15983L92.9542 2.66417ZM92.7211 6.18329L93.3131 6.40729L94.0209 4.53671L93.4289 4.31271L92.7211 6.18329ZM93.667 4.472H91.155V6.472H93.667V4.472ZM91.5016 6.40999L92.2376 6.13799L91.5443 4.262L90.8083 4.534L91.5016 6.40999ZM92.8774 5.0356C92.7622 4.34435 92.4203 3.32913 92.0048 2.55235L90.2412 3.49565C90.5617 4.09487 90.8278 4.90365 90.9046 5.3644L92.8774 5.0356ZM90.7892 2.08137L90.0212 2.35337L90.6889 4.23863L91.4568 3.96663L90.7892 2.08137ZM89.4606 3.74321C89.755 4.33204 90.0087 5.13029 90.0872 5.62796L92.0628 5.31604C91.9493 4.59771 91.627 3.60396 91.2494 2.84879L89.4606 3.74321ZM91.075 4.472H90.179V6.472H91.075V4.472ZM89.179 5.472V6.416H91.179V5.472H89.179ZM90.179 7.416H92.019V5.416H90.179V7.416ZM91.019 6.416V8.048H93.019V6.416H91.019ZM92.019 7.048H90.051V9.048H92.019V7.048ZM89.051 8.048V8.992H91.051V8.048H89.051ZM90.051 9.992H90.723V7.992H90.051V9.992ZM89.723 8.992V11.248H91.723V8.992H89.723ZM89.723 11.248C89.723 11.8151 89.7702 12.5458 90.2464 13.0868C90.7583 13.6682 91.5014 13.752 92.099 13.752V11.752C91.8681 11.752 91.7492 11.7315 91.696 11.7161C91.658 11.7051 91.6997 11.7108 91.7476 11.7652C91.7893 11.8126 91.7782 11.8327 91.7594 11.7473C91.7391 11.6553 91.723 11.5016 91.723 11.248H89.723ZM92.099 13.752H93.971V11.752H92.099V13.752ZM93.971 13.752C94.2859 13.752 94.7865 13.7577 95.1405 13.6818L94.7215 11.7262C94.6275 11.7463 94.3921 11.752 93.971 11.752V13.752ZM95.9233 12.58C95.8922 12.3316 95.8472 11.9072 95.8331 11.6816L93.8369 11.8064C93.8549 12.0928 93.9058 12.5644 93.9387 12.828L95.9233 12.58ZM94.6255 10.7662C94.5915 10.7735 94.4909 10.7863 94.3341 10.7959C94.1913 10.8046 94.0476 10.808 93.955 10.808V12.808C94.177 12.808 94.7055 12.7945 95.0445 12.7218L94.6255 10.7662ZM93.955 10.808H92.099V12.808H93.955V10.808ZM96.755 0.375999H88.515V2.376H96.755V0.375999ZM87.515 1.376V8.624H89.515V1.376H87.515ZM89.4637 8.30777C89.1461 7.3551 88.5462 6.12459 87.9093 5.16074L86.2407 6.26326C86.7878 7.09141 87.3079 8.1649 87.5663 8.94023L89.4637 8.30777ZM86.6977 4.78591L85.8337 5.13791L86.5883 6.99009L87.4523 6.63809L86.6977 4.78591ZM85.3593 6.5881C85.5898 6.96262 85.813 7.39234 86.0304 7.84275L87.8316 6.97325C87.601 6.49566 87.3442 5.99738 87.0627 5.5399L85.3593 6.5881ZM86.8824 6.40918L84.5784 6.52118L84.6756 8.51882L86.9796 8.40682L86.8824 6.40918ZM85.4079 8.14469C86.5321 6.73945 87.7561 4.893 88.6745 3.42684L86.9795 2.36516C86.0739 3.811 84.8979 5.58055 83.8461 6.8953L85.4079 8.14469ZM88.2507 1.99019L87.2587 1.52619L86.4113 3.33781L87.4033 3.80181L88.2507 1.99019ZM85.9472 1.97168C85.5163 2.80281 84.9264 3.8124 84.2889 4.77641L85.9571 5.87959C86.6316 4.8596 87.2577 3.78919 87.7228 2.89232L85.9472 1.97168ZM85.923 4.728C85.6641 4.38285 85.3508 3.99947 84.9824 3.61352L83.5356 4.99448C83.8392 5.31253 84.1019 5.63314 84.323 5.928L85.923 4.728ZM85.0865 4.8655C85.7352 3.90954 86.4481 2.56201 86.996 1.45001L85.202 0.565994C84.6619 1.66199 83.9988 2.90646 83.4315 3.7425L85.0865 4.8655ZM86.4454 0.0699029L85.4054 -0.314097L84.7126 1.5621L85.7526 1.9461L86.4454 0.0699029ZM84.1248 0.267298C83.805 1.10474 83.2672 2.27147 82.7696 3.13096L84.5004 4.13304C85.0588 3.16852 85.641 1.90326 85.9932 0.980701L84.1248 0.267298ZM84.3421 2.92489C84.1607 2.74344 83.9814 2.58243 83.824 2.44071L82.486 3.92729C82.6486 4.07357 82.7893 4.20056 82.9279 4.33911L84.3421 2.92489ZM82.3935 2.53588L81.7535 3.28788L83.2765 4.58412L83.9165 3.83212L82.3935 2.53588ZM81.8241 4.65899C82.5092 5.31362 83.2508 6.1652 83.6584 6.7977L85.3396 5.7143C84.8192 4.9068 83.9608 3.93438 83.2059 3.21301L81.8241 4.65899ZM83.6798 5.68254C83.3555 6.1458 83.0322 6.57666 82.7261 6.9593L84.2879 8.20869C84.6218 7.79134 84.9705 7.3262 85.3182 6.82946L83.6798 5.68254ZM83.4636 6.58494L82.3596 6.63294L82.4464 8.63106L83.5504 8.58306L83.4636 6.58494ZM81.4084 7.73591L81.5204 8.80791L83.5096 8.60009L83.3976 7.52809L81.4084 7.73591ZM82.5786 9.70198L85.0906 9.54198L84.9634 7.54602L82.4514 7.70602L82.5786 9.70198ZM84.027 8.544V15.216H86.027V8.544H84.027ZM85.027 16.216H86.083V14.216H85.027V16.216ZM87.083 15.216V8.48H85.083V15.216H87.083ZM86.1462 9.478L87.4102 9.398L87.2838 7.402L86.0198 7.482L86.1462 9.478ZM86.4299 8.79873C86.5662 9.11225 86.656 9.39973 86.7045 9.63001L88.6616 9.21799C88.582 8.84027 88.4478 8.42375 88.2641 8.00127L86.4299 8.79873ZM88.1021 10.332L88.9341 9.94796L88.0959 8.13204L87.2639 8.51604L88.1021 10.332ZM87.515 9.04V15.248H89.515V9.04H87.515ZM88.515 16.248H89.571V14.248H88.515V16.248ZM90.571 15.248V2.432H88.571V15.248H90.571ZM89.571 3.432H95.667V1.432H89.571V3.432ZM94.667 2.432V13.888H96.667V2.432H94.667ZM94.667 13.888C94.667 13.905 94.6648 13.8617 94.6825 13.7898C94.7024 13.7083 94.7519 13.5737 94.8705 13.4437C95.1061 13.1857 95.3884 13.1896 95.3183 13.1949L95.4717 15.1891C95.6096 15.1784 96.0279 15.1423 96.3475 14.7923C96.6616 14.4483 96.667 14.0336 96.667 13.888H94.667ZM95.395 13.192C95.142 13.192 94.4815 13.2077 93.7744 13.1769L93.6876 15.1751C94.4525 15.2083 95.2 15.192 95.395 15.192V13.192ZM92.8568 14.6616C92.9622 14.8513 93.0751 15.2071 93.0899 15.3328L95.0761 15.0992C95.0269 14.6809 94.8198 14.0767 94.6052 13.6904L92.8568 14.6616ZM94.0674 16.2159C95.053 16.2313 95.9199 16.2142 96.5583 15.9777L95.8637 14.1023C95.6381 14.1858 95.1609 14.2327 94.0986 14.2161L94.0674 16.2159ZM96.6437 15.9415C97.0186 15.7616 97.3405 15.4799 97.5389 15.0554C97.7166 14.6752 97.755 14.2624 97.755 13.888H95.755C95.755 14.0132 95.7478 14.0973 95.7389 14.1525C95.7302 14.2065 95.7221 14.2192 95.7271 14.2086C95.734 14.1937 95.7493 14.1696 95.772 14.1478C95.7924 14.1282 95.8012 14.1275 95.7783 14.1385L96.6437 15.9415ZM97.755 13.888V1.376H95.755V13.888H97.755Z" fill="#2F798C"/>
</svg>
